<?xml version="1.0" encoding="utf-8"?>
<!-- Generator: Adobe Illustrator 19.1.1, SVG Export Plug-In . SVG Version: 6.00 Build 0)  -->
<svg version="1.1" xmlns="http://www.w3.org/2000/svg" xmlns:xlink="http://www.w3.org/1999/xlink" x="0px" y="0px"
	 viewBox="-381 187 188 188" enable-background="new -381 187 188 188" xml:space="preserve">
<g id="Layer_1">
	<g id="Rounded_Rectangle_2">
		<g>
			<path fill="#FFFFFF" d="M-203,187h-168c-5.5,0-10,4.5-10,10v168c0,5.5,4.5,10,10,10h168c5.5,0,10-4.5,10-10V197
				C-193,191.5-197.5,187-203,187z"/>
		</g>
	</g>
</g>
<g id="Layer_3">
	<path fill="#FFA000" d="M-223,357h-128c-6.6,0-12-5.4-12-12V217c0-6.6,5.4-12,12-12h128c6.6,0,12,5.4,12,12v128
		C-211,351.6-216.4,357-223,357z"/>
</g>
<g id="Layer_2">
	<g enable-background="new    ">
		<path fill="#FFFFFF" d="M-324.5,231.8h22.2v43.9h0.4c2.2-3.8,4.6-7.4,6.8-10.9l22.5-33h27.5l-32.8,42.3l34.6,57h-26.2l-24.3-42.8
			l-8.5,10.5v32.4h-22.2V231.8z"/>
	</g>
</g>
</svg>
